# xmcd
#
# Track frame offsets: 
#        150
#        11374
#        24454
#        37199
#        51269
#        64342
#        77886
#        89961
#        104384
#        115975
#        129399
#        143662
#        157605
#        168858
#        179760
#        193131
#        203959
#        217281
#        229697
#        241758
#        256661
#        271181
#        284741
#        297184
#        308919
#
# Disc length: 4291 seconds
#
# Revision: 0
# Processed by: cddbd v1.5.2PL0 Copyright (c) Steve Scherf et al.
# Submitted via: ExactAudioCopyFreeDBPlugin 1.0
#
DISCID=7510c119
DTITLE=Takoma Shellac - Takoma Shellac Volume 7 - Packed My Grip
DYEAR=2007
DGENRE=Western
TTITLE0=Red Foley - Sugarfoot Rag
TTITLE1=Red Foley - I'm Picking Up The Pieces Of A Broken Heart
TTITLE2=Red Foley - The Last Thing I Want Is Your Pity
TTITLE3=Arthur Guitar Boogie Smith's Hot Quintet - Boomerang
TTITLE4=Arthur Guitar Boogie Smith's Hot Quintet - South
TTITLE5=Billy Williams And The Pecos River Rogues - I Ain't A-Gonna Le
TTITLE5=ave My Love No More
TTITLE6=Lou Millet - Since The Devil Moved In
TTITLE7=Carl Smith - Old Lonesome Times
TTITLE8=Roy Acuff And His Smoky Mountain Boys - Write Me Sweetheart
TTITLE9=Frank Luther - Outlaw John Dillinger
TTITLE10=Frank Luther - Crime Does Not Pay
TTITLE11=Anonymous - Jessie James
TTITLE12=W. Lee O'Daniel And His Hillbilly Boys - There's Evil In Ye C
TTITLE12=hildren
TTITLE13=W. Lee O'Daniel And His Hillbilly Boys - Bear Cat Mama
TTITLE14=Eddie Arnold And His Tennessee Plowboys - Then I Turned And W
TTITLE14=alked Away
TTITLE15=Eddie Arnold And His Tennessee Plowboys - One Kiss Too Many
TTITLE16=Eddie Arnold And His Tennessee Plowboys - Take Me In Your Arm
TTITLE16=s And Hold Me
TTITLE17=Eddie Arnold And His Tennessee Plowboys - The Echo Of Your Fo
TTITLE17=otsteps
TTITLE18=Eddie Arnold And His Tennessee Plowboys - A Heart Full Of Lov
TTITLE18=e (For A Handful Of Kisses)
TTITLE19=Eddie Arnold And His Tennessee Plowboys - Will The Circle Be 
TTITLE19=Unbroken
TTITLE20=Louise Massey And The Westerners - Gals Don't Mean A Thing In
TTITLE20=My Young Life
TTITLE21=Louise Massey And The Westerners - The Honey Song (Honey I'm 
TTITLE21=In Love With You)
TTITLE22=Ted Daffan's Texans - Born To Lose
TTITLE23=The Range Riders - Five Foot Two, Eyes Of Blue
TTITLE24=The Range Riders - It Don't Mean A Thing
EXTD=
EXTT0=
EXTT1=
EXTT2=
EXTT3=
EXTT4=
EXTT5=
EXTT6=
EXTT7=
EXTT8=
EXTT9=
EXTT10=
EXTT11=
EXTT12=
EXTT13=
EXTT14=
EXTT15=
EXTT16=
EXTT17=
EXTT18=
EXTT19=
EXTT20=
EXTT21=
EXTT22=
EXTT23=
EXTT24=
PLAYORDER=
